<svg width="155" height="34" viewBox="0 0 155 34" fill="none" xmlns="http://www.w3.org/2000/svg">
<g filter="url(#filter0_d_2_4)">
<path d="M13.992 19.334L16.731 9.83L14.751 3.527H12.87V2.9H23.1V3.527H21.153L26.07 19.136L30.03 3.527H26.697V2.9H33.297V3.527H31.119L25.047 26.33H22.11L17.226 11.414L12.936 26.33H10.065L1.749 3.527H0.198V2.9H10.923V3.527H8.613L13.992 19.334ZM39.8498 26.33C37.0118 26.33 34.8778 25.604 33.4478 24.152C32.0398 22.678 31.3358 20.643 31.3358 18.047C31.3358 15.429 32.1278 13.427 33.7118 12.041C35.3178 10.655 37.3528 9.962 39.8168 9.962C44.8108 9.962 47.2088 12.47 47.0108 17.486H37.7048V18.773C37.7048 20.929 37.9798 22.557 38.5298 23.657C39.0798 24.757 40.0368 25.307 41.4008 25.307C43.9528 25.307 45.6248 23.943 46.4168 21.215L47.0108 21.314C46.5928 22.898 45.8338 24.13 44.7338 25.01C43.6558 25.89 42.0278 26.33 39.8498 26.33ZM37.7378 16.826H41.1368V15.209C41.1368 13.427 41.0268 12.217 40.8068 11.579C40.6088 10.919 40.1908 10.589 39.5528 10.589C38.9368 10.589 38.4748 10.941 38.1668 11.645C37.8808 12.327 37.7378 13.515 37.7378 15.209V16.826ZM49.8364 21.281V10.886H48.0214V10.292H49.8364V6.035L55.9744 4.517V10.292H60.2644V10.886H55.9744V22.007C55.9744 23.041 56.0734 23.8 56.2714 24.284C56.4914 24.768 56.9314 25.01 57.5914 25.01C58.2514 25.01 58.8234 24.68 59.3074 24.02C59.8134 23.36 60.1434 22.458 60.2974 21.314L60.8584 21.38C60.6824 22.898 60.1984 24.108 59.4064 25.01C58.6144 25.89 57.3054 26.33 55.4794 26.33C53.6534 26.33 52.2564 25.967 51.2884 25.241C50.3204 24.515 49.8364 23.195 49.8364 21.281ZM71.8328 19.499V16.694C71.8328 14.56 71.7118 13.009 71.4698 12.041C71.2498 11.051 70.7218 10.556 69.8858 10.556C69.4018 10.556 69.0058 10.699 68.6978 10.985C68.4118 11.249 68.2028 11.7 68.0708 12.338C67.8728 13.328 67.7738 14.835 67.7738 16.859V19.433C67.7738 21.831 67.8398 23.272 67.9718 23.756C68.1258 24.24 68.2798 24.636 68.4338 24.944C68.6758 25.472 69.1488 25.736 69.8528 25.736C70.7108 25.736 71.2718 25.241 71.5358 24.251C71.7338 23.547 71.8328 21.963 71.8328 19.499ZM69.7868 26.33C67.0368 26.33 64.9578 25.626 63.5498 24.218C62.1418 22.81 61.4378 20.797 61.4378 18.179C61.4378 15.539 62.1858 13.515 63.6818 12.107C65.1998 10.677 67.3228 9.962 70.0508 9.962C72.7788 9.962 74.8138 10.622 76.1558 11.942C77.4978 13.24 78.1688 15.231 78.1688 17.915C78.1688 23.525 75.3748 26.33 69.7868 26.33ZM90.1137 11.216C89.2997 11.216 88.5847 11.744 87.9687 12.8C87.3527 13.856 87.0447 15.11 87.0447 16.562V25.406H89.3877V26H79.0917V25.406H80.9067V10.886H79.0917V10.292H87.0447V13.46C87.3307 12.338 87.8807 11.48 88.6947 10.886C89.5087 10.27 90.4327 9.962 91.4667 9.962C92.5007 9.962 93.3367 10.259 93.9747 10.853C94.6347 11.425 94.9647 12.25 94.9647 13.328C94.9647 14.384 94.7227 15.198 94.2387 15.77C93.7547 16.342 93.0067 16.628 91.9947 16.628C91.0047 16.628 90.2677 16.298 89.7837 15.638C89.3217 14.978 89.2667 14.065 89.6187 12.899H90.8067C91.3567 11.777 91.1257 11.216 90.1137 11.216ZM95.4966 10.292H103.45V13.328C103.802 12.316 104.341 11.502 105.067 10.886C105.793 10.27 106.893 9.962 108.367 9.962C111.777 9.962 113.482 11.799 113.482 15.473V25.406H115.33V26H105.991V25.406H107.344V14.681C107.344 13.361 107.256 12.514 107.08 12.14C106.904 11.744 106.585 11.546 106.123 11.546C105.419 11.546 104.792 12.008 104.242 12.932C103.714 13.856 103.45 14.978 103.45 16.298V25.406H104.869V26H95.4966V25.406H97.3116V10.886H95.4966V10.292ZM120.617 8.015C119.451 8.015 118.615 7.718 118.109 7.124C117.625 6.53 117.383 5.793 117.383 4.913C117.383 4.033 117.647 3.307 118.175 2.735C118.725 2.163 119.55 1.877 120.65 1.877C121.75 1.877 122.586 2.141 123.158 2.669C123.73 3.175 124.016 3.912 124.016 4.88C124.016 5.826 123.741 6.585 123.191 7.157C122.641 7.729 121.783 8.015 120.617 8.015ZM115.634 10.292H123.719V25.406H125.567V26H115.766V25.406H117.581V10.886H115.634V10.292ZM137.698 16.265L141.592 10.886H139.216V10.292H144.133V10.886H142.417L138.127 16.958L143.506 25.406H145.222V26H134.2V25.406H136.543L132.913 19.466L129.151 25.406H131.329V26H126.148V25.406H128.326L132.517 18.806L127.501 10.886H125.587V10.292H136.741V10.886H134.431L137.698 16.265Z" fill="black" fill-opacity="0.9" shape-rendering="crispEdges"/>
</g>
<defs>
<filter id="filter0_d_2_4" x="0.197998" y="0.876999" width="154.024" height="32.453" filterUnits="userSpaceOnUse" color-interpolation-filters="sRGB">
<feFlood flood-opacity="0" result="BackgroundImageFix"/>
<feColorMatrix in="SourceAlpha" type="matrix" values="0 0 0 0 0 0 0 0 0 0 0 0 0 0 0 0 0 0 127 0" result="hardAlpha"/>
<feOffset dx="5" dy="3"/>
<feGaussianBlur stdDeviation="2"/>
<feComposite in2="hardAlpha" operator="out"/>
<feColorMatrix type="matrix" values="0 0 0 0 0.501961 0 0 0 0 0.501961 0 0 0 0 0.501961 0 0 0 0.5 0"/>
<feBlend mode="normal" in2="BackgroundImageFix" result="effect1_dropShadow_2_4"/>
<feBlend mode="normal" in="SourceGraphic" in2="effect1_dropShadow_2_4" result="shape"/>
</filter>
</defs>
</svg>
